# xmcd CD database file generated by Grip 2.95
# 
# Track frame offsets:
#       150
#       15692
#       30077
#       45345
#       63275
#       75260
#       97417
#       111300
#       130317
#       144567
# 
# Disc length: 2127 seconds
# 
# Revision: 3
# Processed by: cddbd v1.4b41PL2 Copyright (c) Steve Scherf et al.
# Submitted via: Grip 2.95
# 
DISCID=79084d0a
DTITLE=Mindy McCready - Ten Thousand Angels
DYEAR=1900
DGENRE=
TTITLE0=Ten Thousand Angels
TTITLE1=Guys Do It All The Time
TTITLE2=All That I Am
TTITLE3=Maybe He'll Notice Her Now
TTITLE4=A Girl's Gotta Do (What A Girl's Gotta Do)
TTITLE5=Have A Nice Day
TTITLE6=It Ain't A Party
TTITLE7=Without Love
TTITLE8=Tell Me Something I Don't Know
TTITLE9=Breakin' It
EXTD=
EXTT0=
EXTT1=
EXTT2=
EXTT3=
EXTT4=
EXTT5=
EXTT6=
EXTT7=
EXTT8=
EXTT9=
PLAYORDER=
